<?xml version="1.0" encoding="UTF-8" standalone="no"?><!DOCTYPE svg PUBLIC "-//W3C//DTD SVG 1.1//EN" "http://www.w3.org/Graphics/SVG/1.1/DTD/svg11.dtd"><svg width="100%" height="100%" viewBox="0 0 2500 2500" version="1.1" xmlns="http://www.w3.org/2000/svg" xmlns:xlink="http://www.w3.org/1999/xlink" xml:space="preserve" xmlns:serif="http://www.serif.com/" style="fill-rule:evenodd;clip-rule:evenodd;stroke-linejoin:round;stroke-miterlimit:2;"><g><path d="M1793,728.292c-327.25,-0 -592.542,265.291 -592.542,592.541c0,327.25 265.292,592.542 592.542,592.542c327.25,0 592.542,-265.292 592.542,-592.542c-0,-327.25 -265.292,-592.541 -592.542,-592.541Zm0,959.416c-202.583,0 -366.833,-164.25 -366.833,-366.833c-0,-202.583 164.25,-366.833 366.833,-366.833c202.625,-0 366.833,164.25 366.833,366.833c0,202.583 -164.25,366.833 -366.833,366.833Z" style="fill:#545454;fill-rule:nonzero;"/><path d="M882.625,479.167c-425.208,-0 -769.917,344.708 -769.917,769.916c0,425.209 344.709,769.917 769.917,769.917c425.208,0 769.917,-344.708 769.917,-769.917c-0,-425.208 -344.709,-769.916 -769.917,-769.916Zm0,1314.29c-300.667,0 -544.417,-243.75 -544.417,-544.416c0,-300.667 243.75,-544.417 544.417,-544.417c300.667,0 544.417,243.75 544.417,544.417c-0.042,300.708 -243.75,544.416 -544.417,544.416Z" style="fill:#000448;fill-rule:nonzero;"/><path d="M1793,728.292c-327.25,-0 -592.542,265.291 -592.542,592.541l221.542,0c0,-202.583 168.417,-366.833 371,-366.833l0,-225.708Z" style="fill:#545454;fill-rule:nonzero;"/></g></svg>